# xmcd
#
# Track frame offsets:
#	150
#	20710
#	32418
#	42826
#	60057
#	76311
#	89389
#	104550
#	124931
#	140799
#	152319
#	163382
#
# Disc length: 2387 seconds
#
# Revision: 2
# Processed by: cddbd v1.5.2PL0 Copyright (c) Steve Scherf et al.
# Submitted via: audiograbber 1.81.02
#
DISCID=9509510c
DTITLE=João Paulo e Daniel - João Paulo e Daniel - Vol.2
DYEAR=1987
DGENRE=
TTITLE0=Paloma
TTITLE1=Pensando em Ti
TTITLE2=Desejo
TTITLE3=Decisão
TTITLE4=Metade da Minha Vida
TTITLE5=Sertão
TTITLE6=Planeta Coração
TTITLE7=Você
TTITLE8=Humilhação
TTITLE9=Na Hora da Dor
TTITLE10=Sem Você Não Sou Feliz
TTITLE11=Caminhos
EXTD=
EXTT0=
EXTT1=
EXTT2=
EXTT3=
EXTT4=
EXTT5=
EXTT6=
EXTT7=
EXTT8=
EXTT9=
EXTT10=
EXTT11=
PLAYORDER=
